<?xml version="1.0" encoding="UTF-8" standalone="no"?>
<!DOCTYPE svg PUBLIC "-//W3C//DTD SVG 1.1//EN" "http://www.w3.org/Graphics/SVG/1.1/DTD/svg11.dtd">
<svg xmlns:dc="http://purl.org/dc/elements/1.1/" version="1.1" xmlns="http://www.w3.org/2000/svg" xmlns:xl="http://www.w3.org/1999/xlink" viewBox="21 7 38 72" width="38" height="72">
  <defs/>
  <g id="Canvas_1" fill="none" stroke-opacity="1" stroke="none" stroke-dasharray="none" fill-opacity="1">
    <title>Canvas 1</title>
    <g id="Canvas_1_Layer_1">
      <title>Layer 1</title>
      <g id="Group_7">
        <g id="Graphic_8">
          <path d="M 26.142 50.169 C 25.827 49.26 24.565 52.896 24.11 52.74 C 23.655 52.584 23.796 49.645 23.412 49.232 C 23.027 48.818 21.905 50.89 21.803 50.261 C 21.643 49.269 22.124 45.592 22.452 43.278 C 22.793 40.872 23.788 37.166 23.851 35.83 C 23.869 35.439 22.808 35.65 22.827 35.26 C 22.866 34.435 24.117 31.623 24.086 30.875 C 24.066 30.392 22.637 31.25 22.641 30.767 C 22.647 30.034 23.729 27.941 24.121 26.482 C 24.632 24.582 24.684 21.235 25.702 19.37 C 26.675 17.587 29.067 16.494 30.228 15.292 C 31.148 14.339 31.733 12.909 32.668 12.155 C 33.566 11.431 34.779 11.225 35.838 10.769 C 37.246 10.162 39.314 8.99 41.119 8.517 C 42.917 8.045 45.287 7.512 46.664 7.93 C 47.977 8.328 48.31 10.166 49.381 11.023 C 50.562 11.966 52.638 12.319 53.746 13.592 C 55.066 15.109 56.546 17.764 57.3 20.125 C 58.113 22.673 58.613 27.048 58.623 28.875 C 58.628 29.724 57.475 30.244 57.359 31.085 C 57.142 32.645 57.844 36.478 57.323 38.238 C 56.887 39.709 55.124 40.807 54.23 41.647 C 53.552 42.285 52.375 42.677 51.961 43.278 C 51.586 43.822 52.239 44.809 51.745 45.249 C 51.025 45.892 48.676 46.042 47.639 47.134 C 45.997 48.863 43.377 52.684 41.894 55.619 C 40.443 58.492 39.551 62.988 38.74 64.746 C 38.43 65.419 37.256 65.462 37.032 66.168 C 36.608 67.505 36.818 71.352 36.199 72.763 C 35.737 73.812 34.163 73.863 33.313 74.631 C 32.362 75.49 31.309 77.37 30.493 77.917 C 29.92 78.302 29.022 77.917 28.421 77.917 C 27.912 77.917 27.332 78.176 26.893 77.917 C 25.961 77.37 23.018 76.362 22.834 74.631 C 22.576 72.204 25.092 65.324 25.345 63.354 C 25.393 62.98 24.308 63.183 24.356 62.81 C 24.465 61.95 25.775 59.811 26.003 58.194 C 26.301 56.087 26.458 51.078 26.142 50.169 Z" fill="black"/>
        </g>
      </g>
    </g>
  </g>
</svg>
