<?xml version="1.0" encoding="UTF-8" standalone="no"?>
<!DOCTYPE svg PUBLIC "-//W3C//DTD SVG 1.1//EN" "http://www.w3.org/Graphics/SVG/1.1/DTD/svg11.dtd">
<svg xmlns:dc="http://purl.org/dc/elements/1.1/" version="1.1" xmlns="http://www.w3.org/2000/svg" xmlns:xl="http://www.w3.org/1999/xlink" viewBox="20 4 41 77" width="41" height="77">
  <defs/>
  <g id="Canvas_1" fill="none" stroke-opacity="1" stroke="none" stroke-dasharray="none" fill-opacity="1">
    <title>Canvas 1</title>
    <g id="Canvas_1_Layer_1">
      <title>Layer 1</title>
      <g id="Group_9">
        <g id="Graphic_10">
          <path d="M 36.054 17.901 C 35.606 18.926 34.25 19.325 33.715 20.307 C 32.855 21.887 31.694 25.33 30.895 27.376 C 30.22 29.105 29.206 30.753 28.922 32.582 C 28.637 34.411 29.302 36.705 29.19 38.351 C 29.094 39.752 28.369 41.059 28.247 42.458 C 28.104 44.097 28.354 46.359 28.332 48.182 C 28.311 49.922 28.491 51.699 28.116 53.399 C 27.692 55.315 26.08 58.425 25.79 59.682 C 25.686 60.132 26.544 60.506 26.378 60.937 C 25.782 62.49 23.122 66.456 22.212 68.996 C 21.392 71.286 20.844 74.919 20.919 76.178 C 20.955 76.771 22.316 76.067 22.663 76.55 C 23.112 77.175 23.046 79.578 23.615 79.932 C 24.184 80.287 25.548 79.43 26.079 78.676 C 27.374 76.837 30.301 70.717 31.386 68.894 C 31.671 68.415 32.152 67.747 32.591 67.736 C 33.03 67.725 33.53 69.175 34.023 68.831 C 34.915 68.208 36.678 65.639 37.947 63.997 C 39.401 62.115 40.96 59.329 42.746 57.542 C 44.466 55.821 47.273 54.647 48.664 53.272 C 49.769 52.179 50.19 50.557 51.09 49.291 C 52.154 47.794 53.806 46.008 55.05 44.293 C 56.291 42.58 58.01 41.044 58.551 38.999 C 59.224 36.456 59.301 31.698 59.087 29.033 C 58.919 26.942 57.841 24.707 57.269 23.009 C 56.794 21.599 55.982 20.01 55.653 18.848 C 55.396 17.94 55.246 16.86 55.297 16.039 C 55.343 15.3 55.345 14.29 55.959 13.92 C 56.573 13.55 58.244 13.912 58.982 13.817 C 59.473 13.754 60.321 13.581 60.391 13.35 C 60.461 13.118 59.815 12.609 59.402 12.428 C 58.51 12.036 56.343 11.799 55.038 11.001 C 53.598 10.12 52.151 8.238 50.762 7.146 C 49.486 6.142 48.299 4.768 46.707 4.449 C 45.076 4.122 42.315 4.479 40.973 5.183 C 39.736 5.831 39.287 7.426 38.65 8.669 C 37.92 10.095 37.022 12.201 36.59 13.739 C 36.211 15.086 36.534 16.806 36.054 17.901 Z" fill="black"/>
        </g>
      </g>
    </g>
  </g>
</svg>
