<?xml version="1.0" encoding="UTF-8" standalone="no"?>
<!DOCTYPE svg PUBLIC "-//W3C//DTD SVG 1.1//EN" "http://www.w3.org/Graphics/SVG/1.1/DTD/svg11.dtd">
<svg xmlns:dc="http://purl.org/dc/elements/1.1/" version="1.1" xmlns="http://www.w3.org/2000/svg" xmlns:xl="http://www.w3.org/1999/xlink" viewBox="24 5 31 76" width="31" height="76">
  <defs/>
  <g id="Canvas_1" fill="none" stroke-opacity="1" stroke="none" stroke-dasharray="none" fill-opacity="1">
    <title>Canvas 1</title>
    <g id="Canvas_1_Layer_1">
      <title>Layer 1</title>
      <g id="Group_9">
        <g id="Graphic_10">
          <path d="M 48.076747 13.805 C 47.453747 12.911 47.264747 11.742 46.566747 10.904 C 45.803747 9.99 44.588747 9.093 43.499747 8.316 C 42.345747 7.494 41.053747 6.379 39.641747 5.969 C 38.229747 5.56 36.346747 5.604 35.029747 5.86 C 33.827747 6.093 32.723747 7.005 31.744747 7.504 C 30.877747 7.946 30.101747 8.625 29.155747 8.854 C 28.027747 9.127 25.168747 8.914 24.978747 9.141 C 24.788747 9.367 27.070747 9.704 28.015747 10.214 C 29.177747 10.839 31.604747 11.346 31.945747 12.894 C 32.391747 14.92 30.879747 19.186 30.691747 22.365 C 30.487747 25.822 29.954747 29.962 30.720747 33.642 C 31.675747 38.23 34.702747 45.197 36.420747 49.893 C 37.884747 53.895 40.420747 57.6 41.029747 61.818 C 41.718747 66.592 40.268747 75.46 40.554747 78.538 C 40.640747 79.467 41.881747 80.066 42.741747 80.287 C 43.602747 80.507 44.970747 79.766 45.718747 79.861 C 46.317747 79.936 46.643747 80.976 47.233747 80.852 C 47.894747 80.712 49.515747 80.027 49.683747 79.022 C 49.927747 77.555 48.841747 74.393 48.700747 72.05 C 48.457747 68.049 47.896747 59.001 48.230747 55.019 C 48.434747 52.596 50.024747 50.155 50.705747 48.157 C 51.284747 46.461 51.863747 44.393 52.322747 43.031 C 52.668747 42.003 53.215747 41.039 53.457747 39.982 C 53.772747 38.61 54.073747 36.539 54.209747 34.798 C 54.407747 32.283 55.222747 27.876 54.642747 24.89 C 54.076747 21.974 51.826747 18.729 50.731747 16.882 C 50.041747 15.716 48.770747 14.801 48.076747 13.805 Z" fill="black"/>
        </g>
      </g>
    </g>
  </g>
</svg>
