<?xml version="1.0" encoding="UTF-8" standalone="no"?>
<!DOCTYPE svg PUBLIC "-//W3C//DTD SVG 1.1//EN" "http://www.w3.org/Graphics/SVG/1.1/DTD/svg11.dtd">
<svg xmlns:dc="http://purl.org/dc/elements/1.1/" version="1.1" xmlns="http://www.w3.org/2000/svg" xmlns:xl="http://www.w3.org/1999/xlink" viewBox="25 7 31 69" width="31" height="69">
  <defs/>
  <g id="Canvas_1" fill="none" stroke-opacity="1" stroke="none" stroke-dasharray="none" fill-opacity="1">
    <title>Canvas 1</title>
    <g id="Canvas_1_Layer_1">
      <title>Layer 1</title>
      <g id="Group_9">
        <g id="Graphic_10">
          <path d="M 40.429835 7.113 C 39.299835 7.262 37.295835 8.516 37.295835 8.516 C 37.295835 8.516 35.600835 9.373 35.041835 10.102 C 34.205835 11.193 33.247835 13.461 32.277835 15.06 C 31.317835 16.642 29.898835 18.568 29.221835 19.696 C 28.815835 20.37 28.656835 21.285 28.210835 21.828 C 27.784835 22.345 26.779835 22.322 26.541835 22.949 C 26.124835 24.048 25.752835 26.576 25.707835 28.421 C 25.655835 30.538 25.535835 33.336 26.231835 35.65 C 27.103835 38.549 29.851835 43.499 30.940835 45.815 C 31.530835 47.068 32.079835 48.344 32.770835 49.544 C 33.753835 51.252 35.825835 54.008 36.841835 56.063 C 37.751835 57.902 38.097835 60.302 38.868835 61.874 C 39.524835 63.209 40.748835 64.768 41.471835 65.498 C 41.915835 65.946 42.857835 66.737 43.206835 66.255 C 43.555835 65.772 43.259835 62.951 43.565835 62.604 C 43.870835 62.258 44.755835 63.516 45.041835 64.175 C 45.445835 65.108 45.729835 67.051 45.990835 68.204 C 46.207835 69.163 46.308835 70.152 46.607835 71.088 C 46.930835 72.1 47.471835 73.493 47.929835 74.274 C 48.277835 74.868 48.809835 75.821 49.351835 75.773 C 49.893835 75.725 50.449835 74.223 51.180835 73.985 C 51.912835 73.748 53.206835 74.727 53.741835 74.348 C 54.277835 73.97 54.488835 72.613 54.392835 71.714 C 54.224835 70.144 53.208835 66.787 52.735835 64.926 C 52.363835 63.462 51.752835 61.777 51.553835 60.552 C 51.393835 59.572 51.298835 58.538 51.538835 57.575 C 51.813835 56.474 52.915835 55.244 53.201835 53.944 C 53.584835 52.2 53.536835 49.377 53.837835 47.108 C 54.193835 44.428 55.345835 40.7 55.333835 37.867 C 55.321835 35.228 53.894835 31.661 53.764835 30.109 C 53.715835 29.531 54.588835 29.136 54.552835 28.557 C 54.516835 27.967 53.710835 27.294 53.546835 26.57 C 53.372835 25.803 53.893835 24.737 53.507835 23.956 C 52.847835 22.623 50.378835 19.831 49.590835 18.569 C 49.180835 17.912 48.936835 17.149 48.784835 16.389 C 48.619835 15.565 48.288835 14.494 48.600835 13.625 C 48.938835 12.682 50.374835 11.328 50.815835 10.727 C 50.978835 10.503 51.344835 10.174 51.244835 10.015 C 51.144835 9.856 50.564835 9.73 50.214835 9.772 C 49.798835 9.821 49.184835 10.142 48.750835 10.311 C 48.367835 10.461 48.004835 10.915 47.613835 10.788 C 47.157835 10.638 46.537835 9.883 46.013835 9.414 C 45.424835 8.887 44.888835 7.957 44.075835 7.622 C 43.144835 7.238 41.559835 6.963 40.429835 7.113 Z" fill="black"/>
        </g>
      </g>
    </g>
  </g>
</svg>
