<?xml version="1.0" encoding="UTF-8" standalone="no"?>
<!DOCTYPE svg PUBLIC "-//W3C//DTD SVG 1.1//EN" "http://www.w3.org/Graphics/SVG/1.1/DTD/svg11.dtd">
<svg xmlns:dc="http://purl.org/dc/elements/1.1/" version="1.1" xmlns="http://www.w3.org/2000/svg" xmlns:xl="http://www.w3.org/1999/xlink" viewBox="20 4 41 77" width="41" height="77">
  <defs/>
  <g id="Canvas_1" fill="none" stroke-opacity="1" stroke="none" stroke-dasharray="none" fill-opacity="1">
    <title>Canvas 1</title>
    <g id="Canvas_1_Layer_1">
      <title>Layer 1</title>
      <g id="Group_9">
        <g id="Graphic_10">
          <path d="M 45.2544 17.901 C 45.7024 18.926 47.0584 19.325 47.5934 20.307 C 48.4534 21.887 49.6144 25.33 50.4134 27.376 C 51.0884 29.105 52.1024 30.753 52.3864 32.582 C 52.6714 34.411 52.0064 36.705 52.1184 38.351 C 52.2144 39.752 52.9394 41.059 53.0614 42.458 C 53.2044 44.097 52.9544 46.359 52.9764 48.182 C 52.9974 49.922 52.8174 51.699 53.1924 53.399 C 53.6164 55.315 55.2284 58.425 55.5184 59.682 C 55.6224 60.132 54.7644 60.506 54.9304 60.937 C 55.5264 62.49 58.1864 66.456 59.0964 68.996 C 59.9164 71.286 60.4644 74.919 60.3894 76.178 C 60.3534 76.771 58.9924 76.067 58.6454 76.55 C 58.1964 77.175 58.2624 79.578 57.6934 79.932 C 57.1244 80.287 55.7604 79.43 55.2294 78.676 C 53.9344 76.837 51.0074 70.717 49.9224 68.894 C 49.6374 68.415 49.1564 67.747 48.7174 67.736 C 48.2784 67.725 47.7784 69.175 47.2854 68.831 C 46.3934 68.208 44.6304 65.639 43.3614 63.997 C 41.9074 62.115 40.3484 59.329 38.5624 57.542 C 36.8424 55.821 34.0354 54.647 32.6444 53.272 C 31.5394 52.179 31.1184 50.557 30.2184 49.291 C 29.1544 47.794 27.5024 46.008 26.2584 44.293 C 25.0174 42.58 23.2984 41.044 22.7574 38.999 C 22.0844 36.456 22.0074 31.698 22.2214 29.033 C 22.3894 26.942 23.4674 24.707 24.0394 23.009 C 24.5144 21.599 25.3264 20.01 25.6554 18.848 C 25.9124 17.94 26.0624 16.86 26.0114 16.039 C 25.9654 15.3 25.9634 14.29 25.3494 13.92 C 24.7354 13.55 23.0644 13.912 22.3264 13.817 C 21.8354 13.754 20.9874 13.581 20.9174 13.35 C 20.8474 13.118 21.4934 12.609 21.9064 12.428 C 22.7984 12.036 24.9654 11.799 26.2704 11.001 C 27.7104 10.12 29.1574 8.238 30.5464 7.146 C 31.8224 6.142 33.0094 4.768 34.6014 4.449 C 36.2324 4.122 38.9934 4.479 40.3354 5.183 C 41.5724 5.831 42.0214 7.426 42.6584 8.669 C 43.3884 10.095 44.2864 12.201 44.7184 13.739 C 45.0974 15.086 44.7744 16.806 45.2544 17.901 Z" fill="black"/>
        </g>
      </g>
    </g>
  </g>
</svg>
