<?xml version="1.0" encoding="UTF-8" standalone="no"?>
<!DOCTYPE svg PUBLIC "-//W3C//DTD SVG 1.1//EN" "http://www.w3.org/Graphics/SVG/1.1/DTD/svg11.dtd">
<svg xmlns:dc="http://purl.org/dc/elements/1.1/" version="1.1" xmlns="http://www.w3.org/2000/svg" xmlns:xl="http://www.w3.org/1999/xlink" viewBox="23 2 35 77" width="35" height="77">
  <defs/>
  <g id="Canvas_1" fill="none" stroke-opacity="1" stroke="none" stroke-dasharray="none" fill-opacity="1">
    <title>Canvas 1</title>
    <g id="Canvas_1_Layer_1">
      <title>Layer 1</title>
      <g id="Group_9">
        <g id="Graphic_10">
          <path d="M 32.304 8.098 C 31.158 9.107 29.234 9.398 28.237 10.201 C 27.375 10.895 26.741 12.232 26.321 12.913 C 26.059 13.34 26.045 13.911 25.719 14.291 C 25.385 14.68 24.419 14.691 24.32 15.247 C 23.912 17.537 23.114 24.388 23.269 28.031 C 23.401 31.124 24.436 34.479 25.25 37.103 C 25.968 39.421 27.687 41.963 28.15 43.778 C 28.498 45.141 27.688 46.982 28.029 47.994 C 28.334 48.896 29.488 49.486 30.2 49.851 C 30.831 50.175 31.944 49.573 32.302 50.185 C 33.211 51.737 35.182 56.003 35.652 59.162 C 36.237 63.093 35.038 70.766 35.81 73.769 C 36.277 75.586 39.004 76.466 40.282 77.185 C 41.246 77.727 42.483 78.135 43.478 78.083 C 44.473 78.032 45.244 76.913 46.252 76.875 C 47.361 76.835 48.986 78.519 50.13 77.838 C 51.536 77.001 54.249 74.322 54.686 71.853 C 55.137 69.308 53.059 65.713 52.837 62.564 C 52.555 58.565 52.66 50.488 52.995 47.86 C 53.085 47.154 54.528 47.433 54.847 46.796 C 55.36 45.772 55.824 43.037 56.076 41.716 C 56.255 40.779 56.119 39.792 56.361 38.869 C 56.634 37.827 57.547 36.548 57.717 35.46 C 57.878 34.427 57.423 33.387 57.382 32.342 C 57.268 29.452 57.961 21.57 57.03 18.122 C 56.307 15.445 53.929 13.164 51.794 11.656 C 49.659 10.149 45.536 10.218 44.222 9.076 C 43.143 8.139 44.524 5.797 43.909 4.801 C 43.293 3.806 41.772 3.306 40.527 3.104 C 39.185 2.887 37.19 2.686 35.854 3.497 C 34.483 4.33 33.574 6.981 32.304 8.098 Z" fill="black"/>
        </g>
      </g>
    </g>
  </g>
</svg>
