<?xml version="1.0" encoding="UTF-8" standalone="no"?>
<!DOCTYPE svg PUBLIC "-//W3C//DTD SVG 1.1//EN" "http://www.w3.org/Graphics/SVG/1.1/DTD/svg11.dtd">
<svg xmlns:dc="http://purl.org/dc/elements/1.1/" version="1.1" xmlns="http://www.w3.org/2000/svg" xmlns:xl="http://www.w3.org/1999/xlink" viewBox="25 1 30 49" width="30" height="49">
  <defs/>
  <g id="Canvas_1" fill="none" stroke-opacity="1" stroke="none" stroke-dasharray="none" fill-opacity="1">
    <title>Canvas 1</title>
    <g id="Canvas_1_Layer_1">
      <title>Layer 1</title>
      <g id="Group_9">
        <g id="Graphic_10">
          <path d="M 51.598633 36.919 C 51.949633 36.671 50.711633 35.618 50.933633 34.968 C 51.209633 34.161 52.688633 33.176 53.255633 32.078 C 53.881633 30.868 54.591633 29.237 54.685633 27.707 C 54.818633 25.556 54.242633 21.169 54.049633 19.172 C 53.938633 18.016 54.012633 16.782 53.527633 15.726 C 52.669633 13.856 50.541633 9.994 48.896633 7.953 C 47.456633 6.166 45.484633 4.476 43.659633 3.482 C 41.930633 2.539 39.727633 1.772 37.944633 1.985 C 36.162633 2.198 34.218633 3.332 32.963633 4.76 C 31.680633 6.219 31.441633 9.468 30.250633 10.741 C 29.172633 11.893 25.958633 11.985 25.817633 12.398 C 25.676633 12.811 28.998633 12.658 29.406633 13.22 C 29.814633 13.783 28.545633 14.885 28.265633 15.774 C 27.841633 17.12 26.902633 20.079 26.862633 21.299 C 26.838633 22.011 27.882633 22.396 28.022633 23.094 C 28.237633 24.162 27.558633 26.288 28.152633 27.707 C 28.984633 29.696 32.050633 33.582 33.017633 35.028 C 33.323633 35.486 33.907633 35.839 33.953633 36.387 C 34.005633 37.015 33.528633 37.989 33.332633 38.795 C 33.197633 39.35 33.143633 40.47 32.919633 41.232 C 32.709633 41.948 32.322633 42.306 32.383633 42.854 C 32.501633 43.92 33.497633 45.377 34.086633 45.582 C 34.675633 45.787 35.790633 44.626 35.918633 44.082 C 36.047633 43.538 35.011633 43.18 34.857633 42.32 C 34.772633 41.847 34.457633 40.888 34.480633 40.11 C 34.514633 38.975 34.479633 37.612 34.667633 37.1 C 34.858633 36.579 35.840633 37.002 36.404633 37.135 C 37.041633 37.286 37.747633 37.884 38.490633 38.004 C 39.546633 38.174 41.367633 38.319 42.740633 38.156 C 44.111633 37.994 45.856633 36.937 46.727633 37.03 C 47.419633 37.103 47.787633 38.037 47.969633 38.71 C 48.179633 39.493 48.226633 40.748 47.992633 41.726 C 47.717633 42.871 46.634633 44.424 46.322633 45.582 C 46.053633 46.579 45.983633 48.173 46.118633 48.674 C 46.206633 49.002 46.969633 48.886 47.132633 48.589 C 47.333633 48.22 47.127633 46.816 47.326633 46.462 C 47.489633 46.171 48.055633 46.359 48.327633 46.462 C 48.598633 46.565 48.898633 46.793 48.954633 47.082 C 49.066633 47.664 48.753633 49.736 49.003633 49.953 C 49.253633 50.17 50.086633 48.966 50.454633 48.384 C 50.822633 47.803 51.186633 47.15 51.212633 46.462 C 51.238633 45.745 50.816633 44.798 50.614633 44.082 C 50.431633 43.437 50.211633 42.802 49.998633 42.166 C 49.765633 41.475 49.378633 40.706 49.220633 39.935 C 49.025633 38.982 48.433633 36.956 48.829633 36.453 C 49.226633 35.95 51.248633 37.166 51.598633 36.919 Z" fill="black"/>
        </g>
      </g>
    </g>
  </g>
</svg>
