<?xml version="1.0" encoding="UTF-8" standalone="no"?>
<!DOCTYPE svg PUBLIC "-//W3C//DTD SVG 1.1//EN" "http://www.w3.org/Graphics/SVG/1.1/DTD/svg11.dtd">
<svg xmlns:dc="http://purl.org/dc/elements/1.1/" version="1.1" xmlns="http://www.w3.org/2000/svg" xmlns:xl="http://www.w3.org/1999/xlink" viewBox="14 0 53 62" width="53" height="62">
  <defs/>
  <g id="Canvas_1" fill="none" stroke-opacity="1" stroke="none" stroke-dasharray="none" fill-opacity="1">
    <title>Canvas 1</title>
    <g id="Canvas_1_Layer_1">
      <title>Layer 1</title>
      <g id="Group_9">
        <g id="Graphic_10">
          <path d="M 61.512725 42.715 C 60.476725 39.799 57.882725 32.833 56.441725 29.425 C 55.403725 26.968 53.789725 24.315 52.867725 22.267 C 52.115725 20.597 51.858725 18.7 50.906725 17.135 C 49.909725 15.496 48.380725 13.854 46.886725 12.432 C 45.351725 10.971 43.089725 9.663 41.698725 8.371 C 40.510725 7.269 39.713725 5.792 38.536725 4.679 C 37.351725 3.558 36.098725 2.336 34.588725 1.649 C 33.069725 .958 31.172725 .352 29.419725 .533 C 27.662725 .714 25.205725 2.123 24.048725 2.738 C 23.413725 3.076 23.193725 4.128 22.480725 4.223 C 20.876725 4.437 14.616725 3.441 14.424725 4.022 C 14.233725 4.602 20.220725 6.494 21.329725 7.705 C 22.137725 8.587 21.244725 10.101 21.076725 11.285 C 20.828725 13.039 19.773725 15.878 19.840725 18.227 C 19.913725 20.764 20.335725 23.949 21.513725 26.506 C 22.791725 29.281 25.245725 32.372 27.510725 34.874 C 29.767725 37.367 34.718725 40.063 35.103725 41.517 C 35.489725 42.971 31.268725 43.171 29.821725 43.596 C 28.723725 43.919 27.324725 43.367 26.419725 44.068 C 25.285725 44.946 23.101725 48.29 23.019725 48.861 C 22.936725 49.432 25.096725 47.701 25.924725 47.493 C 26.592725 47.326 27.692725 47.134 27.987725 47.616 C 28.281725 48.098 27.792725 49.567 27.692725 50.384 C 27.605725 51.098 27.084725 52.855 27.388725 52.52 C 27.691725 52.185 29.094725 49.369 29.513725 48.372 C 29.755725 47.795 29.344725 46.825 29.899725 46.534 C 31.209725 45.847 35.656725 44.202 37.376725 44.25 C 38.654725 44.286 39.593725 45.915 40.220725 46.822 C 40.792725 47.649 40.767725 49.125 41.143725 49.693 C 41.408725 50.092 42.223725 50.634 42.479725 50.228 C 42.738725 49.817 42.381725 47.671 42.699725 47.224 C 43.017725 46.778 44.155725 47.105 44.388725 47.55 C 44.620725 47.995 44.317725 49.247 44.092725 49.895 C 43.888725 50.483 43.144725 51.089 43.037725 51.438 C 42.970725 51.657 43.235725 52.062 43.451725 51.986 C 43.762725 51.877 44.626725 51.347 44.902725 50.782 C 45.271725 50.028 45.369725 48.279 45.664725 47.462 C 45.876725 46.873 46.046725 45.83 46.669725 45.878 C 47.497725 45.941 49.420725 47.003 50.633725 47.841 C 52.294725 48.989 54.858725 50.888 56.640725 52.767 C 58.794725 55.037 62.190725 60.403 63.552725 61.463 C 64.250725 62.006 64.385725 59.563 64.813725 59.127 C 65.125725 58.81 65.829725 59.161 66.120725 58.849 C 66.410725 58.537 66.806725 57.746 66.555725 57.256 C 65.809725 55.801 63.032725 52.015 61.644725 50.123 C 61.644725 50.123 62.674725 48.041 62.654725 46.923 C 62.632725 45.688 61.998725 44.085 61.512725 42.715 Z" fill="black"/>
        </g>
      </g>
    </g>
  </g>
</svg>
