<?xml version="1.0" encoding="UTF-8" standalone="no"?>
<!DOCTYPE svg PUBLIC "-//W3C//DTD SVG 1.1//EN" "http://www.w3.org/Graphics/SVG/1.1/DTD/svg11.dtd">
<svg xmlns:dc="http://purl.org/dc/elements/1.1/" version="1.1" xmlns="http://www.w3.org/2000/svg" xmlns:xl="http://www.w3.org/1999/xlink" viewBox="23 2 35 77" width="35" height="77">
  <defs/>
  <g id="Canvas_1" fill="none" stroke-opacity="1" stroke="none" stroke-dasharray="none" fill-opacity="1">
    <title>Canvas 1</title>
    <g id="Canvas_1_Layer_1">
      <title>Layer 1</title>
      <g id="Group_9">
        <g id="Graphic_10">
          <path d="M 48.696647 8.098 C 49.842647 9.107 51.766647 9.398 52.76365 10.201 C 53.62565 10.895 54.25965 12.232 54.67965 12.913 C 54.94165 13.34 54.95565 13.911 55.28165 14.291 C 55.61565 14.68 56.58165 14.691 56.68065 15.247 C 57.08865 17.537 57.88665 24.388 57.73165 28.031 C 57.59965 31.124 56.56465 34.479 55.75065 37.103 C 55.03265 39.421 53.31365 41.963 52.85065 43.778 C 52.50265 45.141 53.31265 46.982 52.97165 47.994 C 52.66665 48.896 51.512647 49.486 50.800647 49.851 C 50.169647 50.175 49.056647 49.573 48.698647 50.185 C 47.789647 51.737 45.818647 56.003 45.348647 59.162 C 44.763647 63.093 45.962647 70.766 45.190647 73.769 C 44.723647 75.586 41.996647 76.466 40.718647 77.185 C 39.754647 77.727 38.517647 78.135 37.522647 78.083 C 36.527647 78.032 35.756647 76.913 34.748647 76.875 C 33.639647 76.835 32.014647 78.519 30.870647 77.838 C 29.464647 77.001 26.751647 74.322 26.314647 71.853 C 25.863647 69.308 27.941647 65.713 28.163647 62.564 C 28.445647 58.565 28.340647 50.488 28.005647 47.86 C 27.915647 47.154 26.472647 47.433 26.153647 46.796 C 25.640647 45.772 25.176647 43.037 24.924647 41.716 C 24.745647 40.779 24.881647 39.792 24.639647 38.869 C 24.366647 37.827 23.453647 36.548 23.283647 35.46 C 23.122647 34.427 23.577647 33.387 23.618647 32.342 C 23.732647 29.452 23.039647 21.57 23.970647 18.122 C 24.693647 15.445 27.071647 13.164 29.206647 11.656 C 31.341647 10.149 35.464647 10.218 36.778647 9.076 C 37.857647 8.139 36.476647 5.797 37.091647 4.801 C 37.707647 3.806 39.228647 3.306 40.473647 3.104 C 41.815647 2.887 43.810647 2.686 45.146647 3.497 C 46.517647 4.33 47.426647 6.981 48.696647 8.098 Z" fill="black"/>
        </g>
      </g>
    </g>
  </g>
</svg>
