<?xml version="1.0" encoding="UTF-8" standalone="no"?>
<!DOCTYPE svg PUBLIC "-//W3C//DTD SVG 1.1//EN" "http://www.w3.org/Graphics/SVG/1.1/DTD/svg11.dtd">
<svg xmlns:dc="http://purl.org/dc/elements/1.1/" version="1.1" xmlns="http://www.w3.org/2000/svg" xmlns:xl="http://www.w3.org/1999/xlink" viewBox="25 1 30 49" width="30" height="49">
  <defs/>
  <g id="Canvas_1" fill="none" stroke-opacity="1" stroke="none" stroke-dasharray="none" fill-opacity="1">
    <title>Canvas 1</title>
    <g id="Canvas_1_Layer_1">
      <title>Layer 1</title>
      <g id="Group_9">
        <g id="Graphic_10">
          <path d="M 28.92 36.919 C 28.569 36.671 29.807 35.618 29.585 34.968 C 29.309 34.161 27.83 33.176 27.263 32.078 C 26.637 30.868 25.927 29.237 25.833 27.707 C 25.7 25.556 26.276 21.169 26.469 19.172 C 26.58 18.016 26.506 16.782 26.991 15.726 C 27.849 13.856 29.977 9.994 31.622 7.953 C 33.062 6.166 35.034 4.476 36.859 3.482 C 38.588 2.539 40.791 1.772 42.574 1.985 C 44.356 2.198 46.3 3.332 47.555 4.76 C 48.838 6.219 49.077 9.468 50.268 10.741 C 51.346 11.893 54.56 11.985 54.701 12.398 C 54.842 12.811 51.52 12.658 51.112 13.22 C 50.704 13.783 51.973 14.885 52.253 15.774 C 52.677 17.12 53.616 20.079 53.656 21.299 C 53.68 22.011 52.636 22.396 52.496 23.094 C 52.281 24.162 52.96 26.288 52.366 27.707 C 51.534 29.696 48.468 33.582 47.501 35.028 C 47.195 35.486 46.611 35.839 46.565 36.387 C 46.513 37.015 46.99 37.989 47.186 38.795 C 47.321 39.35 47.375 40.47 47.599 41.232 C 47.809 41.948 48.196 42.306 48.135 42.854 C 48.017 43.92 47.021 45.377 46.432 45.582 C 45.843 45.787 44.728 44.626 44.6 44.082 C 44.471 43.538 45.507 43.18 45.661 42.32 C 45.746 41.847 46.061 40.888 46.038 40.11 C 46.004 38.975 46.039 37.612 45.851 37.1 C 45.66 36.579 44.678 37.002 44.114 37.135 C 43.477 37.286 42.771 37.884 42.028 38.004 C 40.972 38.174 39.151 38.319 37.778 38.156 C 36.407 37.994 34.662 36.937 33.791 37.03 C 33.099 37.103 32.731 38.037 32.549 38.71 C 32.339 39.493 32.292 40.748 32.526 41.726 C 32.801 42.871 33.884 44.424 34.196 45.582 C 34.465 46.579 34.535 48.173 34.4 48.674 C 34.312 49.002 33.549 48.886 33.386 48.589 C 33.185 48.22 33.391 46.816 33.192 46.462 C 33.029 46.171 32.463 46.359 32.191 46.462 C 31.92 46.565 31.62 46.793 31.564 47.082 C 31.452 47.664 31.765 49.736 31.515 49.953 C 31.265 50.17 30.432 48.966 30.064 48.384 C 29.696 47.803 29.332 47.15 29.306 46.462 C 29.28 45.745 29.702 44.798 29.904 44.082 C 30.087 43.437 30.307 42.802 30.52 42.166 C 30.753 41.475 31.14 40.706 31.298 39.935 C 31.493 38.982 32.085 36.956 31.689 36.453 C 31.292 35.95 29.27 37.166 28.92 36.919 Z" fill="black"/>
        </g>
      </g>
    </g>
  </g>
</svg>
