<?xml version="1.0" encoding="UTF-8" standalone="no"?>
<!DOCTYPE svg PUBLIC "-//W3C//DTD SVG 1.1//EN" "http://www.w3.org/Graphics/SVG/1.1/DTD/svg11.dtd">
<svg xmlns:dc="http://purl.org/dc/elements/1.1/" version="1.1" xmlns="http://www.w3.org/2000/svg" xmlns:xl="http://www.w3.org/1999/xlink" viewBox="25 7 31 69" width="31" height="69">
  <defs/>
  <g id="Canvas_1" fill="none" stroke-opacity="1" stroke="none" stroke-dasharray="none" fill-opacity="1">
    <title>Canvas 1</title>
    <g id="Canvas_1_Layer_1">
      <title>Layer 1</title>
      <g id="Group_9">
        <g id="Graphic_10">
          <path d="M 40.57 7.113 C 41.7 7.262 43.704 8.516 43.704 8.516 C 43.704 8.516 45.399 9.373 45.958 10.102 C 46.794 11.193 47.752 13.461 48.722 15.06 C 49.682 16.642 51.101 18.568 51.778 19.696 C 52.184 20.37 52.343 21.285 52.789 21.828 C 53.215 22.345 54.22 22.322 54.458 22.949 C 54.875 24.048 55.247 26.576 55.292 28.421 C 55.344 30.538 55.464 33.336 54.768 35.65 C 53.896 38.549 51.148 43.499 50.059 45.815 C 49.469 47.068 48.92 48.344 48.229 49.544 C 47.246 51.252 45.174 54.008 44.158 56.063 C 43.248 57.902 42.902 60.302 42.131 61.874 C 41.475 63.209 40.251 64.768 39.528 65.498 C 39.084 65.946 38.142 66.737 37.793 66.255 C 37.444 65.772 37.74 62.951 37.434 62.604 C 37.129 62.258 36.244 63.516 35.958 64.175 C 35.554 65.108 35.27 67.051 35.009 68.204 C 34.792 69.163 34.691 70.152 34.392 71.088 C 34.069 72.1 33.528 73.493 33.07 74.274 C 32.722 74.868 32.19 75.821 31.648 75.773 C 31.106 75.725 30.55 74.223 29.819 73.985 C 29.087 73.748 27.793 74.727 27.258 74.348 C 26.722 73.97 26.511 72.613 26.607 71.714 C 26.775 70.144 27.791 66.787 28.264 64.926 C 28.636 63.462 29.247 61.777 29.446 60.552 C 29.606 59.572 29.701 58.538 29.461 57.575 C 29.186 56.474 28.084 55.244 27.798 53.944 C 27.415 52.2 27.463 49.377 27.162 47.108 C 26.806 44.428 25.654 40.7 25.666 37.867 C 25.678 35.228 27.105 31.661 27.235 30.109 C 27.284 29.531 26.411 29.136 26.447 28.557 C 26.483 27.967 27.289 27.294 27.453 26.57 C 27.627 25.803 27.106 24.737 27.492 23.956 C 28.152 22.623 30.621 19.831 31.409 18.569 C 31.819 17.912 32.063 17.149 32.215 16.389 C 32.38 15.565 32.711 14.494 32.399 13.625 C 32.061 12.682 30.625 11.328 30.184 10.727 C 30.021 10.503 29.655 10.174 29.755 10.015 C 29.855 9.856 30.435 9.73 30.785 9.772 C 31.201 9.821 31.815 10.142 32.249 10.311 C 32.632 10.461 32.995 10.915 33.386 10.788 C 33.842 10.638 34.462 9.883 34.986 9.414 C 35.575 8.887 36.111 7.957 36.924 7.622 C 37.855 7.238 39.44 6.963 40.57 7.113 Z" fill="black"/>
        </g>
      </g>
    </g>
  </g>
</svg>
