<?xml version="1.0" encoding="UTF-8" standalone="no"?>
<!DOCTYPE svg PUBLIC "-//W3C//DTD SVG 1.1//EN" "http://www.w3.org/Graphics/SVG/1.1/DTD/svg11.dtd">
<svg xmlns:dc="http://purl.org/dc/elements/1.1/" version="1.1" xmlns="http://www.w3.org/2000/svg" xmlns:xl="http://www.w3.org/1999/xlink" viewBox="26 0 29 60" width="29" height="60">
  <defs/>
  <g id="Canvas_1" fill="none" stroke-opacity="1" stroke="none" stroke-dasharray="none" fill-opacity="1">
    <title>Canvas 1</title>
    <g id="Canvas_1_Layer_1">
      <title>Layer 1</title>
      <g id="Group_9">
        <g id="Graphic_10">
          <path d="M 26.373 8.236 L 33.75 6.087 C 33.75 6.087 35.116 4.03 36.048 3.246 C 37.129 2.338 38.654 .978 40.233 .639 C 41.812 .301 43.855 .61 45.521 1.217 C 47.224 1.838 49.223 2.879 50.453 4.365 C 51.683 5.851 52.268 8.147 52.9 10.133 C 53.532 12.119 54.048 14.191 54.244 16.278 C 54.456 18.529 54.534 21.211 54.17 23.636 C 53.803 26.078 53.02 28.788 52.045 30.929 C 51.12 32.957 49.461 35.023 48.314 36.478 C 47.391 37.65 45.73 39.021 45.166 39.659 C 45.014 39.831 44.933 40.308 44.933 40.308 L 49.12 42.23 C 49.12 42.23 51.576 42.247 52.351 42.732 C 53.126 43.218 53.721 44.348 53.77 45.142 C 53.819 45.936 53.049 46.745 52.648 47.496 C 52.254 48.232 51.618 49.675 51.363 49.646 C 51.108 49.618 51.558 47.671 51.118 47.323 C 50.679 46.975 49.163 47.287 48.724 47.558 C 48.324 47.805 48.377 48.55 48.481 48.947 C 48.584 49.345 49.403 49.787 49.343 49.943 C 49.283 50.099 48.478 50.079 48.121 49.881 C 47.74 49.671 47.251 49.065 47.06 48.679 C 46.895 48.347 46.918 47.936 46.974 47.569 C 47.061 46.996 47.227 45.877 47.585 45.244 C 47.933 44.626 48.992 44.089 49.119 43.768 C 49.228 43.49 48.347 43.313 48.347 43.313 L 44.527 41.454 C 44.527 41.454 42.951 42.216 42.619 42.869 C 42.287 43.522 42.909 44.705 42.535 45.37 C 42.161 46.035 40.78 46.165 40.375 46.858 C 39.971 47.551 40.249 48.898 40.109 49.529 C 40.019 49.935 39.748 50.811 39.537 50.64 C 39.326 50.469 39.162 48.815 38.845 48.503 C 38.551 48.213 37.838 48.407 37.634 48.766 C 37.223 49.491 36.659 51.514 36.376 52.853 C 36.102 54.147 36.26 55.704 35.936 56.797 C 35.651 57.761 35.028 58.918 34.432 59.412 C 33.892 59.859 33.013 60.011 32.358 59.762 C 31.635 59.488 30.955 58.03 30.097 57.767 C 29.239 57.503 27.879 58.458 27.208 58.181 C 26.537 57.904 26.001 56.891 26.07 56.105 C 26.155 55.141 27.337 53.572 27.715 52.4 C 28.062 51.327 28.231 50.197 28.342 49.075 C 28.485 47.626 28.542 45.498 28.576 43.707 C 28.618 41.495 28.344 38.176 28.595 35.802 C 28.823 33.644 29.91 31.277 30.081 29.463 C 30.224 27.947 29.389 26.423 29.621 24.917 C 29.96 22.721 31.302 18.506 32.115 16.283 C 32.719 14.633 33.907 12.598 34.501 11.581 C 34.501 11.581 34.659 9.49 34.314 9.004 C 33.97 8.518 33.068 8.726 32.434 8.664 C 31.111 8.537 26.373 8.236 26.373 8.236 Z" fill="black"/>
        </g>
      </g>
    </g>
  </g>
</svg>
