<?xml version="1.0" encoding="UTF-8" standalone="no"?>
<!DOCTYPE svg PUBLIC "-//W3C//DTD SVG 1.1//EN" "http://www.w3.org/Graphics/SVG/1.1/DTD/svg11.dtd">
<svg xmlns:dc="http://purl.org/dc/elements/1.1/" version="1.1" xmlns="http://www.w3.org/2000/svg" xmlns:xl="http://www.w3.org/1999/xlink" viewBox="25 9 31 39" width="31" height="39">
  <defs/>
  <g id="Canvas_1" fill="none" stroke-opacity="1" stroke="none" stroke-dasharray="none" fill-opacity="1">
    <title>Canvas 1</title>
    <g id="Canvas_1_Layer_1">
      <title>Layer 1</title>
      <g id="Group_9">
        <g id="Graphic_10">
          <path d="M 27.337 20.4 C 27.675 19.529 27.355 17.478 27.793 16.107 C 28.259 14.652 28.804 12.69 30.129 11.672 C 31.462 10.647 33.822 10.04 35.793 9.96 C 38.191 9.863 41.884 10.405 44.516 11.091 C 46.991 11.737 50.033 12.81 51.584 14.079 C 52.911 15.165 53.191 17.345 53.823 18.709 C 54.365 19.881 55.14 20.991 55.371 22.263 C 55.623 23.654 55.46 25.918 55.336 27.052 C 55.259 27.759 54.713 28.359 54.627 29.065 C 54.499 30.12 55.022 32.061 54.565 33.382 C 54.107 34.703 52.765 36.066 51.882 36.991 C 51.133 37.775 49.328 37.846 49.267 38.929 C 49.227 39.646 49.902 39.98 50.551 41.571 C 50.644 41.8 51.281 43.284 51.345 43.511 C 51.883 45.427 51.31 47.159 51.31 47.159 L 49.344 47.459 C 49.344 47.459 49.05 46.072 49.062 44.41 C 49.071 43.265 48.703 41.488 48.539 41.428 C 48.001 41.23 47.366 41.471 45.13 41.473 C 43.582 41.474 41.336 41.79 39.803 41.848 C 38.513 41.897 36.496 41.364 35.931 41.822 C 35.496 42.175 35.238 42.473 35.238 42.473 L 35.327 44.071 C 35.327 44.071 38.641 45.266 38.325 45.555 C 38.008 45.845 34.162 46.063 33.428 45.809 C 32.846 45.607 33.92 44.028 33.92 44.028 L 33.97 42.157 C 33.97 42.157 34.148 40.848 33.89 40.473 C 33.29 39.599 31.519 39.332 30.59 38.432 C 29.384 37.265 27.535 34.972 26.658 33.467 C 25.94 32.235 25.549 30.811 25.324 29.403 C 25.063 27.759 25.013 24.945 25.086 23.6 C 25.129 22.812 25.389 21.866 25.764 21.333 C 26.115 20.834 27.116 20.968 27.337 20.4 Z" fill="black"/>
        </g>
      </g>
    </g>
  </g>
</svg>
