<?xml version="1.0" encoding="UTF-8" standalone="no"?>
<!DOCTYPE svg PUBLIC "-//W3C//DTD SVG 1.1//EN" "http://www.w3.org/Graphics/SVG/1.1/DTD/svg11.dtd">
<svg xmlns:dc="http://purl.org/dc/elements/1.1/" version="1.1" xmlns="http://www.w3.org/2000/svg" xmlns:xl="http://www.w3.org/1999/xlink" viewBox="14 2 53 55" width="53" height="55">
  <defs/>
  <g id="Canvas_1" fill="none" stroke-opacity="1" stroke="none" stroke-dasharray="none" fill-opacity="1">
    <title>Canvas 1</title>
    <g id="Canvas_1_Layer_1">
      <title>Layer 1</title>
      <g id="Group_9">
        <g id="Graphic_10">
          <path d="M 66.21632 44.273 L 61.05332 37.108 C 61.05332 37.108 60.07132 34.855 59.74132 33.676 C 59.38532 32.405 59.65032 30.705 58.92032 29.482 C 57.99632 27.932 54.93932 25.364 54.19432 24.373 C 54.01932 24.141 54.45532 23.54 54.45532 23.54 C 54.45532 23.54 50.67332 20.459 49.81532 19.644 C 49.42932 19.277 50.09732 19.184 50.09732 19.184 C 50.09732 19.184 47.29732 15.889 46.25232 15.258 C 44.56432 14.239 41.19532 14.148 39.69132 13.529 C 38.71532 13.128 37.78032 12.443 37.22432 11.547 C 36.64132 10.607 36.92232 8.928 36.19332 7.893 C 35.34132 6.681 33.30632 5.157 32.10732 4.277 C 31.16132 3.583 30.15932 2.814 29.00232 2.617 C 27.66232 2.389 25.27932 2.499 24.06532 2.909 C 23.05532 3.249 22.76632 4.893 21.71632 5.075 C 20.09832 5.357 14.61232 4.067 14.35632 4.601 C 14.10132 5.135 19.22332 6.84 20.18332 8.279 C 21.10032 9.652 19.86932 11.6 20.12032 13.232 C 20.45332 15.392 21.28332 18.91 22.17932 21.241 C 22.99632 23.369 24.54232 25.159 25.49332 27.22 C 26.44432 29.282 26.36932 31.916 27.88632 33.611 C 29.93332 35.9 36.60332 39.379 37.78032 40.949 C 38.48232 41.886 35.82432 42.7 34.94932 43.031 C 34.19432 43.316 33.33632 42.974 32.53032 42.932 C 31.69032 42.889 30.78432 42.725 29.91032 42.769 C 28.94232 42.818 27.05632 42.532 26.72532 43.226 C 26.39432 43.92 27.51632 46.273 27.92232 46.933 C 28.14332 47.292 29.01832 47.374 29.16132 47.185 C 29.30432 46.997 28.40832 46.103 28.77932 45.802 C 29.21232 45.45 31.20632 44.745 31.76032 45.075 C 32.31532 45.405 32.15732 46.873 32.10432 47.781 C 32.05032 48.712 31.23932 50.389 31.43332 50.658 C 31.62832 50.927 32.95532 50.067 33.27132 49.394 C 33.63732 48.613 32.87932 46.84 33.62832 45.972 C 34.54932 44.905 37.50032 43.017 38.79532 42.99 C 40.07432 42.964 40.71832 45.111 41.39532 45.814 C 41.86232 46.298 42.58332 46.721 42.85732 47.204 C 43.10732 47.645 42.78832 48.356 43.04032 48.713 C 43.29332 49.071 44.24932 48.871 44.37232 49.347 C 44.50232 49.85 43.63332 51.891 43.81932 51.731 C 43.90832 51.654 44.66632 51.454 45.00632 50.798 C 45.38332 50.07 45.34532 48.862 45.48832 48.382 C 45.69132 47.702 45.13432 46.629 45.75932 46.459 C 47.34232 46.029 52.32932 44.238 54.98632 45.802 C 57.78732 47.45 61.12032 54.627 62.56232 56.347 C 62.79732 56.627 63.42632 56.422 63.63732 56.123 C 63.88332 55.774 63.55832 54.503 64.03932 54.255 C 64.52132 54.007 66.11132 54.795 66.52532 54.634 C 66.94032 54.473 66.71032 53.698 66.52732 53.288 C 66.09132 52.307 64.61632 49.802 63.90432 48.751 C 63.45232 48.083 62.75332 47.615 62.25632 46.98 C 61.67032 46.231 60.65032 45.326 60.39032 44.257 C 60.09032 43.026 59.62232 39.793 60.45832 39.591 C 60.83032 39.501 62.10332 40.323 62.77532 41.413 C 64.24532 43.796 66.21632 44.273 66.21632 44.273 Z" fill="black"/>
        </g>
      </g>
    </g>
  </g>
</svg>
