<?xml version="1.0" encoding="UTF-8" standalone="no"?>
<!DOCTYPE svg PUBLIC "-//W3C//DTD SVG 1.1//EN" "http://www.w3.org/Graphics/SVG/1.1/DTD/svg11.dtd">
<svg xmlns:dc="http://purl.org/dc/elements/1.1/" version="1.1" xmlns="http://www.w3.org/2000/svg" xmlns:xl="http://www.w3.org/1999/xlink" viewBox="22 3 38 74" width="38" height="74">
  <defs/>
  <g id="Canvas_1" fill="none" stroke-opacity="1" stroke="none" stroke-dasharray="none" fill-opacity="1">
    <title>Canvas 1</title>
    <g id="Canvas_1_Layer_1">
      <title>Layer 1</title>
      <g id="Group_9">
        <g id="Graphic_10">
          <path d="M 53.72176 14.16 C 52.97576 12.918 52.64576 11.429 51.76176 10.281 C 50.68876 8.889 48.88076 6.889 47.28576 5.808 C 45.77476 4.784 43.81976 4.045 42.19176 3.796 C 40.64376 3.558 38.62676 3.571 37.52076 4.31 C 36.41476 5.049 36.30576 7.375 35.55676 8.229 C 34.94276 8.929 33.03276 9.109 33.03176 9.429 C 33.03076 9.749 34.96576 9.646 35.55076 10.15 C 36.13476 10.654 36.99176 11.753 36.53776 12.454 C 35.83376 13.54 32.53476 14.785 31.32776 16.663 C 29.76176 19.1 27.81876 23.398 27.14076 27.078 C 26.22876 32.021 25.91776 42.814 25.85776 46.323 C 25.84676 47.001 26.75276 47.458 26.78076 48.135 C 26.86076 50.107 27.05476 54.889 26.33976 58.155 C 25.56276 61.706 22.49976 66.743 22.11776 69.442 C 21.87176 71.183 23.12676 73.491 24.04976 74.351 C 24.93176 75.172 26.62876 74.257 27.65676 74.6 C 28.64776 74.93 29.44876 76.22 30.21776 76.406 C 30.92076 76.575 31.70776 76.163 32.27376 75.714 C 33.12276 75.04 34.66276 73.725 35.30876 72.364 C 36.11876 70.655 35.99076 67.55 37.13376 65.463 C 39.01676 62.025 44.06176 55.092 46.60276 51.734 C 48.34076 49.437 50.82976 47.331 52.38076 45.312 C 53.73976 43.542 54.90076 41.102 55.90576 39.619 C 56.66676 38.496 57.97276 37.696 58.40876 36.413 C 59.01976 34.617 59.44376 31.095 59.57176 28.846 C 59.68476 26.869 59.71976 24.751 59.17676 22.918 C 58.63276 21.086 57.21976 19.31 56.30976 17.85 C 55.51576 16.575 54.47976 15.421 53.72176 14.16 Z" fill="black"/>
        </g>
      </g>
    </g>
  </g>
</svg>
