<?xml version="1.0" encoding="UTF-8" standalone="no"?>
<!DOCTYPE svg PUBLIC "-//W3C//DTD SVG 1.1//EN" "http://www.w3.org/Graphics/SVG/1.1/DTD/svg11.dtd">
<svg xmlns:dc="http://purl.org/dc/elements/1.1/" version="1.1" xmlns="http://www.w3.org/2000/svg" xmlns:xl="http://www.w3.org/1999/xlink" viewBox="3 9 75 42" width="75" height="42">
  <defs/>
  <g id="Canvas_1" fill="none" stroke-opacity="1" stroke="none" stroke-dasharray="none" fill-opacity="1">
    <title>Canvas 1</title>
    <g id="Canvas_1_Layer_1">
      <title>Layer 1</title>
      <g id="Group_7">
        <g id="Graphic_8">
          <path d="M 21.409 28.933 L 28.028 23.716 C 28.028 23.716 33.856 20.611 36.344 19.2 C 38.578 17.933 40.57 16.191 42.958 15.247 C 45.437 14.268 48.932 14.045 51.218 13.322 C 53.115 12.722 54.771 11.477 56.678 10.908 C 58.696 10.306 61.094 9.454 63.329 9.709 C 65.564 9.964 68.504 11.34 70.087 12.439 C 71.384 13.339 71.81 15.095 72.828 16.302 C 73.992 17.681 77.186 19.792 77.066 20.711 C 76.946 21.631 73.241 21.046 72.108 21.819 C 71.012 22.567 70.783 24.498 70.268 25.349 C 69.921 25.922 69.186 26.274 69.017 26.922 C 68.715 28.088 69.365 30.774 68.452 32.346 C 67.283 34.361 64.419 37.403 62.004 39.008 C 59.623 40.589 54.817 41.072 53.959 41.974 C 53.101 42.876 56.955 43.186 56.854 44.421 C 56.752 45.656 54.513 48.676 53.35 49.385 C 52.34 50.001 50.146 48.938 49.873 48.676 C 49.601 48.413 51.338 48.182 51.715 47.811 C 52.01 47.521 52.074 47.547 51.54 45.973 C 51.32 45.324 49.766 45.597 48.866 45.597 C 47.435 45.597 44.319 45.66 42.955 45.973 C 42.068 46.176 40.676 47.473 40.676 47.473 L 40.515 48.896 L 39.479 50.315 L 36.428 50.763 L 38.032 49.003 L 38.122 47.473 C 38.122 47.473 38.231 44.724 37.216 44.448 C 36.163 44.162 33.609 46.034 31.805 45.757 C 30.002 45.481 27.965 43.336 26.393 42.788 C 25.125 42.346 23.609 42.178 22.376 42.468 C 21.144 42.757 20.21 44.008 18.997 44.524 C 17.219 45.281 13.737 46.11 11.709 47.006 C 9.981 47.769 7.906 49.51 6.834 49.897 C 6.314 50.085 5.27 49.754 5.276 49.33 C 5.281 48.905 6.987 47.567 6.867 47.35 C 6.746 47.133 5.03 48.128 4.551 48.03 C 4.099 47.938 3.666 47.087 3.993 46.763 C 4.398 46.362 6.102 46.226 6.981 45.623 C 8.405 44.647 10.71 42.47 12.538 40.904 C 14.348 39.352 16.464 37.665 17.949 36.226 C 19.213 35 20.703 33.178 21.447 32.267 Z" fill="black"/>
        </g>
      </g>
    </g>
  </g>
</svg>
