<?xml version="1.0" encoding="UTF-8" standalone="no"?>
<!DOCTYPE svg PUBLIC "-//W3C//DTD SVG 1.1//EN" "http://www.w3.org/Graphics/SVG/1.1/DTD/svg11.dtd">
<svg xmlns:dc="http://purl.org/dc/elements/1.1/" version="1.1" xmlns="http://www.w3.org/2000/svg" xmlns:xl="http://www.w3.org/1999/xlink" viewBox="23 2 36 77" width="36" height="77">
  <defs/>
  <g id="Canvas_1" fill="none" stroke-opacity="1" stroke="none" stroke-dasharray="none" fill-opacity="1">
    <title>Canvas 1</title>
    <g id="Canvas_1_Layer_1">
      <title>Layer 1</title>
      <g id="Group_9">
        <g id="Graphic_10">
          <path d="M 46.62607 7.088 C 45.71407 6.321 45.60007 4.83 44.83207 3.996 C 44.06407 3.163 43.13407 2.284 42.01807 2.088 C 40.83207 1.881 38.629068 2.122 37.719068 2.75 C 36.809068 3.378 36.927068 5.09 36.557068 5.857 C 36.291068 6.409 36.036068 7.068 35.497068 7.357 C 34.341068 7.976 31.076068 8.419 29.620068 9.572 C 28.183068 10.71 27.674068 12.757 26.765068 14.274 C 25.889068 15.735 24.632068 17.034 24.163068 18.672 C 23.568068 20.75 23.041068 24.035 23.194068 26.739 C 23.356068 29.609 24.365068 32.87 25.135068 35.892 C 25.928068 39.007 27.231068 43.44 27.953068 45.429 C 28.276068 46.318 29.193068 46.922 29.469068 47.827 C 29.879068 49.174 29.992068 51.773 30.417068 53.517 C 30.814068 55.147 32.017068 56.613 32.015068 58.291 C 32.011068 61.196 30.209068 68.085 30.391068 70.95 C 30.503068 72.708 32.203068 74.397 33.110068 75.483 C 33.830068 76.344 34.983068 77.175 35.834068 77.463 C 36.590068 77.719 37.419068 77.151 38.215068 77.212 C 39.091068 77.279 40.25407 77.747 41.08707 77.866 C 41.78807 77.965 42.59907 78.278 43.21207 77.922 C 44.34007 77.266 47.31507 75.899 47.85407 73.931 C 48.58307 71.267 47.26307 65.744 47.58507 61.934 C 47.89707 58.251 49.20507 52.973 49.78607 51.067 C 49.92307 50.618 50.85307 50.911 51.07407 50.497 C 51.44207 49.81 51.71607 48.138 51.99007 46.947 C 52.29707 45.609 52.46007 43.923 52.91807 42.469 C 53.49907 40.626 54.72207 38.12 55.47507 35.892 C 56.31307 33.412 57.66007 30.462 57.94607 27.588 C 58.24707 24.551 57.74007 19.769 57.28507 17.666 C 57.04507 16.558 55.78007 15.802 55.21307 14.969 C 54.71507 14.238 54.41107 13.381 53.88407 12.67 C 53.14507 11.674 51.98707 9.923 50.77707 8.993 C 49.57007 8.065 47.61707 7.921 46.62607 7.088 Z" fill="black"/>
        </g>
      </g>
    </g>
  </g>
</svg>
