<?xml version="1.0" encoding="UTF-8" standalone="no"?>
<!DOCTYPE svg PUBLIC "-//W3C//DTD SVG 1.1//EN" "http://www.w3.org/Graphics/SVG/1.1/DTD/svg11.dtd">
<svg xmlns:dc="http://purl.org/dc/elements/1.1/" version="1.1" xmlns="http://www.w3.org/2000/svg" xmlns:xl="http://www.w3.org/1999/xlink" viewBox="24 3 34 78" width="34" height="78">
  <defs/>
  <g id="Canvas_1" fill="none" stroke-opacity="1" stroke="none" stroke-dasharray="none" fill-opacity="1">
    <title>Canvas 1</title>
    <g id="Canvas_1_Layer_1">
      <title>Layer 1</title>
      <g id="Group_9">
        <g id="Graphic_10">
          <path d="M 37.041 76.453 C 36.554 76.46 35.62 76.948 35.58 76.463 C 35.506 75.565 36.515 72.897 36.596 71.07 C 36.713 68.398 36.992 63.8 36.286 60.433 C 35.579 57.065 33.645 53.193 32.355 50.864 C 31.414 49.166 29.755 47.977 28.544 46.459 C 27.273 44.867 25.308 42.595 24.732 41.312 C 24.381 40.528 25.167 39.615 25.091 38.759 C 24.989 37.611 24.171 35.904 24.119 34.425 C 24.063 32.88 24.469 31.124 24.76 29.491 C 25.056 27.831 25.162 25.623 25.893 24.468 C 26.566 23.406 28.167 23.339 29.148 22.562 C 30.129 21.786 31.247 20.717 31.777 19.809 C 32.239 19.018 32.436 17.78 32.328 17.116 C 32.235 16.537 31.314 16.382 31.134 15.823 C 30.804 14.801 30.78 12.118 30.35 10.982 C 30.035 10.15 29.221 9.596 28.554 9.007 C 27.756 8.3 25.973 7.349 25.558 6.743 C 25.282 6.339 25.576 5.385 26.065 5.367 C 26.618 5.346 27.855 6.706 28.877 6.616 C 29.972 6.519 31.32 5.248 32.634 4.788 C 34.011 4.306 35.595 3.79 37.134 3.724 C 38.773 3.654 40.916 3.468 42.463 4.367 C 44.178 5.364 46.296 7.955 47.423 9.702 C 48.409 11.23 48.692 13.428 49.225 14.85 C 49.653 15.992 49.881 17.263 50.622 18.232 C 51.826 19.809 55.463 22.798 56.449 24.311 C 56.996 25.151 56.484 26.315 56.538 27.316 C 56.625 28.941 56.881 31.93 56.975 34.064 C 57.063 36.08 57.353 38.834 57.102 40.117 C 56.954 40.875 55.602 40.999 55.47 41.76 C 55.205 43.281 55.668 46.974 55.515 49.246 C 55.375 51.314 55.055 53.379 54.548 55.389 C 53.931 57.833 52.57 61.453 51.815 63.913 C 51.179 65.981 50.472 68.992 50.014 70.147 C 49.869 70.512 49.242 71.157 49.067 70.847 C 48.892 70.538 48.945 69.143 48.963 68.289 C 48.987 67.112 48.978 65.251 49.214 63.782 C 49.45 62.314 50.313 60.394 50.38 59.477 C 50.414 59.006 50.056 58.126 49.616 58.284 C 49.176 58.442 48.203 59.596 47.742 60.425 C 47.195 61.407 46.58 62.863 46.335 64.175 C 45.95 66.228 45.702 71.062 45.435 72.742 C 45.348 73.29 44.815 73.704 44.734 74.254 C 44.543 75.55 44.588 79.545 44.291 80.518 C 44.155 80.965 43.314 80.395 42.955 80.096 C 42.481 79.702 41.947 78.769 41.448 78.153 C 40.965 77.558 40.672 76.679 39.957 76.403 C 39.222 76.12 37.771 76.443 37.041 76.453 Z" fill="black"/>
        </g>
      </g>
    </g>
  </g>
</svg>
