<?xml version="1.0" encoding="UTF-8" standalone="no"?>
<!DOCTYPE svg PUBLIC "-//W3C//DTD SVG 1.1//EN" "http://www.w3.org/Graphics/SVG/1.1/DTD/svg11.dtd">
<svg xmlns:dc="http://purl.org/dc/elements/1.1/" version="1.1" xmlns="http://www.w3.org/2000/svg" xmlns:xl="http://www.w3.org/1999/xlink" viewBox="14 2 53 55" width="53" height="55">
  <defs/>
  <g id="Canvas_1" fill="none" stroke-opacity="1" stroke="none" stroke-dasharray="none" fill-opacity="1">
    <title>Canvas 1</title>
    <g id="Canvas_1_Layer_1">
      <title>Layer 1</title>
      <g id="Group_9">
        <g id="Graphic_10">
          <path d="M 14.889 44.273 L 20.052 37.108 C 20.052 37.108 21.034 34.855 21.364 33.676 C 21.72 32.405 21.455 30.705 22.185 29.482 C 23.109 27.932 26.166 25.364 26.911 24.373 C 27.086 24.141 26.65 23.54 26.65 23.54 C 26.65 23.54 30.432 20.459 31.29 19.644 C 31.676 19.277 31.008 19.184 31.008 19.184 C 31.008 19.184 33.808 15.889 34.853 15.258 C 36.541 14.239 39.91 14.148 41.414 13.529 C 42.39 13.128 43.325 12.443 43.881 11.547 C 44.464 10.607 44.183 8.928 44.912 7.893 C 45.764 6.681 47.799 5.157 48.998 4.277 C 49.944 3.583 50.946 2.814 52.103 2.617 C 53.443 2.389 55.826 2.499 57.04 2.909 C 58.05 3.249 58.339 4.893 59.389 5.075 C 61.007 5.357 66.493 4.067 66.749 4.601 C 67.004 5.135 61.882 6.84 60.922 8.279 C 60.005 9.652 61.236 11.6 60.985 13.232 C 60.652 15.392 59.822 18.91 58.926 21.241 C 58.109 23.369 56.563 25.159 55.612 27.22 C 54.661 29.282 54.736 31.916 53.219 33.611 C 51.172 35.9 44.502 39.379 43.325 40.949 C 42.623 41.886 45.281 42.7 46.156 43.031 C 46.911 43.316 47.769 42.974 48.575 42.932 C 49.415 42.889 50.321 42.725 51.195 42.769 C 52.163 42.818 54.049 42.532 54.38 43.226 C 54.711 43.92 53.589 46.273 53.183 46.933 C 52.962 47.292 52.087 47.374 51.944 47.185 C 51.801 46.997 52.697 46.103 52.326 45.802 C 51.893 45.45 49.899 44.745 49.345 45.075 C 48.79 45.405 48.948 46.873 49.001 47.781 C 49.055 48.712 49.866 50.389 49.672 50.658 C 49.477 50.927 48.15 50.067 47.834 49.394 C 47.468 48.613 48.226 46.84 47.477 45.972 C 46.556 44.905 43.605 43.017 42.31 42.99 C 41.031 42.964 40.387 45.111 39.71 45.814 C 39.243 46.298 38.522 46.721 38.248 47.204 C 37.998 47.645 38.317 48.356 38.065 48.713 C 37.812 49.071 36.856 48.871 36.733 49.347 C 36.603 49.85 37.472 51.891 37.286 51.731 C 37.197 51.654 36.439 51.454 36.099 50.798 C 35.722 50.07 35.76 48.862 35.617 48.382 C 35.414 47.702 35.971 46.629 35.346 46.459 C 33.763 46.029 28.776 44.238 26.119 45.802 C 23.318 47.45 19.985 54.627 18.543 56.347 C 18.308 56.627 17.679 56.422 17.468 56.123 C 17.222 55.774 17.547 54.503 17.066 54.255 C 16.584 54.007 14.994 54.795 14.58 54.634 C 14.165 54.473 14.395 53.698 14.578 53.288 C 15.014 52.307 16.489 49.802 17.201 48.751 C 17.653 48.083 18.352 47.615 18.849 46.98 C 19.435 46.231 20.455 45.326 20.715 44.257 C 21.015 43.026 21.483 39.793 20.647 39.591 C 20.275 39.501 19.002 40.323 18.33 41.413 C 16.86 43.796 14.889 44.273 14.889 44.273 Z" fill="black"/>
        </g>
      </g>
    </g>
  </g>
</svg>
