<?xml version="1.0" encoding="UTF-8" standalone="no"?>
<!DOCTYPE svg PUBLIC "-//W3C//DTD SVG 1.1//EN" "http://www.w3.org/Graphics/SVG/1.1/DTD/svg11.dtd">
<svg xmlns:dc="http://purl.org/dc/elements/1.1/" version="1.1" xmlns="http://www.w3.org/2000/svg" xmlns:xl="http://www.w3.org/1999/xlink" viewBox="14 0 53 62" width="53" height="62">
  <defs/>
  <g id="Canvas_1" fill="none" stroke-opacity="1" stroke="none" stroke-dasharray="none" fill-opacity="1">
    <title>Canvas 1</title>
    <g id="Canvas_1_Layer_1">
      <title>Layer 1</title>
      <g id="Group_9">
        <g id="Graphic_10">
          <path d="M 19.543 42.715 C 20.579 39.799 23.173 32.833 24.614 29.425 C 25.652 26.968 27.266 24.315 28.188 22.267 C 28.94 20.597 29.197 18.7 30.149 17.135 C 31.146 15.496 32.675 13.854 34.169 12.432 C 35.704 10.971 37.966 9.663 39.357 8.371 C 40.545 7.269 41.342 5.792 42.519 4.679 C 43.704 3.558 44.957 2.336 46.467 1.649 C 47.986 .958 49.883 .352 51.636 .533 C 53.393 .714 55.85 2.123 57.007 2.738 C 57.642 3.076 57.862 4.128 58.575 4.223 C 60.179 4.437 66.439 3.441 66.631 4.022 C 66.822 4.602 60.835 6.494 59.726 7.705 C 58.918 8.587 59.811 10.101 59.979 11.285 C 60.227 13.039 61.282 15.878 61.215 18.227 C 61.142 20.764 60.72 23.949 59.542 26.506 C 58.264 29.281 55.81 32.372 53.545 34.874 C 51.288 37.367 46.337 40.063 45.952 41.517 C 45.566 42.971 49.787 43.171 51.234 43.596 C 52.332 43.919 53.731 43.367 54.636 44.068 C 55.77 44.946 57.954 48.29 58.036 48.861 C 58.119 49.432 55.959 47.701 55.131 47.493 C 54.463 47.326 53.363 47.134 53.068 47.616 C 52.774 48.098 53.263 49.567 53.363 50.384 C 53.45 51.098 53.971 52.855 53.667 52.52 C 53.364 52.185 51.961 49.369 51.542 48.372 C 51.3 47.795 51.711 46.825 51.156 46.534 C 49.846 45.847 45.399 44.202 43.679 44.25 C 42.401 44.286 41.462 45.915 40.835 46.822 C 40.263 47.649 40.288 49.125 39.912 49.693 C 39.647 50.092 38.832 50.634 38.576 50.228 C 38.317 49.817 38.674 47.671 38.356 47.224 C 38.038 46.778 36.9 47.105 36.667 47.55 C 36.435 47.995 36.738 49.247 36.963 49.895 C 37.167 50.483 37.911 51.089 38.018 51.438 C 38.085 51.657 37.82 52.062 37.604 51.986 C 37.293 51.877 36.429 51.347 36.153 50.782 C 35.784 50.028 35.686 48.279 35.391 47.462 C 35.179 46.873 35.009 45.83 34.386 45.878 C 33.558 45.941 31.635 47.003 30.422 47.841 C 28.761 48.989 26.197 50.888 24.415 52.767 C 22.261 55.037 18.865 60.403 17.503 61.463 C 16.805 62.006 16.67 59.563 16.242 59.127 C 15.93 58.81 15.226 59.161 14.935 58.849 C 14.645 58.537 14.249 57.746 14.5 57.256 C 15.246 55.801 18.023 52.015 19.411 50.123 C 19.411 50.123 18.381 48.041 18.401 46.923 C 18.423 45.688 19.057 44.085 19.543 42.715 Z" fill="black"/>
        </g>
      </g>
    </g>
  </g>
</svg>
