<?xml version="1.0" encoding="UTF-8" standalone="no"?>
<!DOCTYPE svg PUBLIC "-//W3C//DTD SVG 1.1//EN" "http://www.w3.org/Graphics/SVG/1.1/DTD/svg11.dtd">
<svg xmlns:dc="http://purl.org/dc/elements/1.1/" version="1.1" xmlns="http://www.w3.org/2000/svg" xmlns:xl="http://www.w3.org/1999/xlink" viewBox="20 9 41 72" width="41" height="72">
  <defs/>
  <g id="Canvas_1" fill="none" stroke-opacity="1" stroke="none" stroke-dasharray="none" fill-opacity="1">
    <title>Canvas 1</title>
    <g id="Canvas_1_Layer_1">
      <title>Layer 1</title>
      <g id="Group_9">
        <g id="Graphic_10">
          <path d="M 60.35147 15.166 C 60.45247 15.457 59.11447 15.877 58.45547 16.143 C 57.78147 16.414 56.92547 16.375 56.30647 16.795 C 55.67047 17.227 55.11847 18.028 54.63947 18.733 C 54.09547 19.532 53.69847 20.72 53.04347 21.593 C 52.35547 22.511 50.96247 23.104 50.51047 24.238 C 50.01247 25.492 50.16447 27.485 50.05047 29.114 C 49.92647 30.892 49.77647 33.106 49.76747 34.909 C 49.75947 36.586 49.98547 38.486 49.99947 39.932 C 50.01147 41.152 50.13147 42.742 49.85147 43.588 C 49.63347 44.25 48.71047 44.535 48.32147 45.014 C 47.97347 45.442 47.91847 46.083 47.51747 46.462 C 46.62247 47.306 44.39047 48.773 42.95447 50.079 C 41.18247 51.691 38.58747 53.84 36.88147 56.133 C 35.01447 58.644 32.89547 62.157 31.75247 65.143 C 30.67147 67.967 30.36447 72.054 30.02447 74.048 C 29.85247 75.059 30.06647 76.145 29.71347 77.108 C 29.32447 78.171 28.82947 79.925 27.69047 80.425 C 26.55047 80.926 24.074472 80.632 22.875472 80.11 C 21.747472 79.618 20.655472 78.51 20.494472 77.29 C 20.314472 75.926 21.405472 73.724 21.796472 71.926 C 22.187472 70.125 22.722472 68.155 22.841472 66.481 C 22.951472 64.949 22.772472 63.399 22.513472 61.884 C 22.243472 60.307 21.437472 58.68 21.223472 57.014 C 20.915472 54.619 20.667472 50.687 20.668472 47.516 C 20.669472 44.04 20.892472 38.8 21.226472 36.16 C 21.423472 34.602 21.901472 33.044 22.671472 31.676 C 23.762472 29.738 25.71947 26.619 27.76947 24.531 C 29.97647 22.282 34.00347 19.952 35.91447 18.183 C 37.23747 16.958 37.94947 15.177 39.23647 13.914 C 40.53847 12.636 42.18947 11.265 43.72647 10.515 C 45.18147 9.804 46.99547 9.196 48.45747 9.412 C 49.92047 9.628 51.29747 11.075 52.50147 11.81 C 53.57147 12.463 54.79047 13.388 55.68147 13.819 C 56.35447 14.145 57.13047 14.189 57.84847 14.397 C 58.62647 14.621 60.25047 14.875 60.35147 15.166 Z" fill="black"/>
        </g>
      </g>
    </g>
  </g>
</svg>
